<svg xmlns="http://www.w3.org/2000/svg" width="182.557" height="59.717" viewBox="0 0 182.557 59.717"><defs><style>.a{fill:#1a252b;}.b{fill:#fff;}</style></defs><path class="a" d="M279.2,790.265a8.07,8.07,0,0,1-8.068,8.071H104.711a8.072,8.072,0,0,1-8.07-8.071V746.689a8.071,8.071,0,0,1,8.07-8.07H271.13a8.07,8.07,0,0,1,8.068,8.07Z" transform="translate(-96.641 -738.619)"/><path class="b" d="M152.37,767.232H137.5a3.227,3.227,0,0,0-3.227,3.227V803.4a3.228,3.228,0,0,0,3.227,3.228h14.87A3.228,3.228,0,0,0,155.6,803.4V770.459A3.227,3.227,0,0,0,152.37,767.232Zm-7.435,37.031a2.149,2.149,0,1,1,2.15-2.15A2.149,2.149,0,0,1,144.935,804.262Zm8.128-5.346H136.807v-24.3h16.257Z" transform="translate(-120.841 -757.019)"/><g transform="translate(44.871 9.654)"><path class="b" d="M224.423,772.934l-.9,2.737h-1.162l2.957-8.7h1.356l2.97,8.7h-1.2l-.93-2.737Zm2.854-.878-.865-2.506c-.181-.569-.31-1.085-.439-1.588h-.038c-.116.5-.258,1.046-.427,1.575l-.852,2.519Z" transform="translate(-222.357 -766.503)"/><path class="b" d="M243.833,773.842l1.227,3.5c.207.58.375,1.1.5,1.614h.039c.142-.516.322-1.033.529-1.614l1.214-3.5h1.188l-2.455,6.25h-1.085l-2.375-6.25Z" transform="translate(-235.388 -770.924)"/><path class="b" d="M265.023,778.339a10.475,10.475,0,0,0,.091,1.5h-1.02l-.1-.787h-.039a2.306,2.306,0,0,1-1.911.929,1.78,1.78,0,0,1-1.911-1.794c0-1.512,1.343-2.338,3.757-2.325v-.129a1.283,1.283,0,0,0-1.42-1.445,3.01,3.01,0,0,0-1.64.464l-.259-.763a4.062,4.062,0,0,1,2.066-.541c1.925,0,2.389,1.3,2.389,2.557Zm-1.111-1.693c-1.24-.025-2.646.194-2.646,1.408a1,1,0,0,0,1.057,1.085,1.579,1.579,0,0,0,1.537-1.046,1.176,1.176,0,0,0,.051-.362Z" transform="translate(-246.648 -770.668)"/><path class="b" d="M279,767.994a.729.729,0,0,1,.026-1.458.7.7,0,0,1,.724.722.711.711,0,0,1-.736.736Zm-.541,7.4v-6.25h1.136v6.25Z" transform="translate(-258.325 -766.226)"/><path class="b" d="M287.043,765.667h1.136v9.168h-1.136Z" transform="translate(-263.955 -765.667)"/><path class="b" d="M298.846,778.339a10.536,10.536,0,0,0,.09,1.5h-1.021l-.1-.787h-.038a2.308,2.308,0,0,1-1.912.929,1.78,1.78,0,0,1-1.911-1.794c0-1.512,1.343-2.338,3.758-2.325v-.129a1.283,1.283,0,0,0-1.422-1.445,3,3,0,0,0-1.638.464l-.259-.763a4.06,4.06,0,0,1,2.067-.541c1.924,0,2.389,1.3,2.389,2.557Zm-1.11-1.693c-1.24-.025-2.648.194-2.648,1.408a1,1,0,0,0,1.059,1.085,1.579,1.579,0,0,0,1.537-1.046,1.155,1.155,0,0,0,.052-.362Z" transform="translate(-268.398 -770.668)"/><path class="b" d="M312.49,765.667h1.137v3.912h.026a2.318,2.318,0,0,1,2.129-1.136c1.55,0,2.635,1.292,2.635,3.177,0,2.247-1.421,3.357-2.815,3.357a2.238,2.238,0,0,1-2.092-1.175h-.027l-.065,1.033h-.98c.039-.427.05-1.059.05-1.614Zm1.137,6.663a2.042,2.042,0,0,0,.04.413,1.764,1.764,0,0,0,1.7,1.33c1.2,0,1.9-.968,1.9-2.4,0-1.265-.645-2.336-1.859-2.336a1.886,1.886,0,0,0-1.783,1.872Z" transform="translate(-280.288 -765.667)"/><path class="b" d="M332.986,765.667h1.136v9.168h-1.136Z" transform="translate(-293.5 -765.667)"/><path class="b" d="M341.1,776.882a1.992,1.992,0,0,0,2.13,2.169,4.308,4.308,0,0,0,1.731-.31l.206.8a5.083,5.083,0,0,1-2.092.4A2.915,2.915,0,0,1,340,776.792c0-1.9,1.123-3.384,2.945-3.384,2.038,0,2.569,1.8,2.569,2.944a2.939,2.939,0,0,1-.039.543Zm3.318-.813a1.623,1.623,0,0,0-1.563-1.848,1.875,1.875,0,0,0-1.743,1.848Z" transform="translate(-298.012 -770.645)"/><path class="b" d="M368.43,779.978a2.979,2.979,0,0,1-3-3.215,3.059,3.059,0,0,1,3.1-3.319,2.956,2.956,0,0,1,3.008,3.2,3.063,3.063,0,0,1-3.1,3.332Zm.038-.852c1.085,0,1.9-1.02,1.9-2.441,0-1.059-.529-2.389-1.872-2.389s-1.911,1.24-1.911,2.428c0,1.369.774,2.4,1.872,2.4Z" transform="translate(-314.367 -770.668)"/><path class="b" d="M386.286,775.279c0-.66-.015-1.175-.054-1.693h1.008l.064,1.02h.026a2.316,2.316,0,0,1,2.065-1.162c.865,0,2.21.517,2.21,2.66v3.732h-1.138v-3.6c0-1.005-.374-1.859-1.447-1.859a1.639,1.639,0,0,0-1.523,1.162,1.7,1.7,0,0,0-.077.53v3.77h-1.135Z" transform="translate(-327.742 -770.668)"/><path class="b" d="M413.854,769.647v1.5h1.625v.865h-1.625v3.37c0,.775.22,1.214.851,1.214a2.116,2.116,0,0,0,.66-.078l.05.865a3.088,3.088,0,0,1-1.006.155,1.625,1.625,0,0,1-1.228-.477,2.453,2.453,0,0,1-.439-1.641v-3.409h-.968v-.865h.968v-1.149Z" transform="translate(-344.168 -768.226)"/><path class="b" d="M425.557,765.667h1.136v3.9h.025a2.015,2.015,0,0,1,.814-.8,2.209,2.209,0,0,1,1.163-.323c.838,0,2.18.517,2.18,2.674v3.718h-1.135v-3.589c0-1.02-.375-1.861-1.447-1.861a1.645,1.645,0,0,0-1.523,1.137,1.369,1.369,0,0,0-.078.543v3.77h-1.136Z" transform="translate(-353.031 -765.667)"/><path class="b" d="M445.283,776.882a1.992,1.992,0,0,0,2.13,2.169,4.321,4.321,0,0,0,1.732-.31l.206.8a5.092,5.092,0,0,1-2.093.4,2.916,2.916,0,0,1-3.073-3.151c0-1.9,1.124-3.384,2.945-3.384,2.04,0,2.571,1.8,2.571,2.944a2.9,2.9,0,0,1-.039.543Zm3.319-.813a1.623,1.623,0,0,0-1.563-1.848,1.873,1.873,0,0,0-1.744,1.848Z" transform="translate(-365.01 -770.645)"/><path class="b" d="M471.124,767.994a.729.729,0,0,1,.025-1.458.7.7,0,0,1,.723.722.712.712,0,0,1-.738.736Zm-.544,7.4v-6.25h1.136v6.25Z" transform="translate(-381.876 -766.226)"/><path class="b" d="M479.275,766.968a11.685,11.685,0,0,1,2.157-.181,3.565,3.565,0,0,1,2.439.724,2.346,2.346,0,0,1,.776,1.82,2.512,2.512,0,0,1-.685,1.859,3.6,3.6,0,0,1-2.659.956,3.954,3.954,0,0,1-.9-.076v3.486h-1.124Zm1.124,4.184a3.832,3.832,0,0,0,.93.091c1.368,0,2.182-.671,2.182-1.846s-.814-1.717-2.053-1.717a5.579,5.579,0,0,0-1.059.091Z" transform="translate(-387.576 -766.387)"/><path class="b" d="M498.053,765.667h1.137v3.9h.026a2.02,2.02,0,0,1,.813-.8,2.216,2.216,0,0,1,1.163-.323c.839,0,2.182.517,2.182,2.674v3.718h-1.136v-3.589c0-1.02-.375-1.861-1.447-1.861a1.648,1.648,0,0,0-1.523,1.137,1.37,1.37,0,0,0-.077.543v3.77h-1.137Z" transform="translate(-399.652 -765.667)"/><path class="b" d="M519.68,779.978a2.979,2.979,0,0,1-3-3.215,3.059,3.059,0,0,1,3.1-3.319,2.955,2.955,0,0,1,3.007,3.2,3.062,3.062,0,0,1-3.1,3.332Zm.04-.852c1.083,0,1.9-1.02,1.9-2.441,0-1.059-.529-2.389-1.873-2.389s-1.912,1.24-1.912,2.428c0,1.369.775,2.4,1.872,2.4Z" transform="translate(-411.633 -770.668)"/><path class="b" d="M537.538,775.279c0-.66-.013-1.175-.052-1.693h1.008l.064,1.02h.026a2.317,2.317,0,0,1,2.066-1.162c.865,0,2.207.517,2.207,2.66v3.732h-1.135v-3.6c0-1.005-.375-1.859-1.447-1.859a1.639,1.639,0,0,0-1.523,1.162,1.68,1.68,0,0,0-.08.53v3.77h-1.135Z" transform="translate(-425.01 -770.668)"/><path class="b" d="M557.358,776.882a1.993,1.993,0,0,0,2.131,2.169,4.306,4.306,0,0,0,1.729-.31l.207.8a5.093,5.093,0,0,1-2.092.4,2.916,2.916,0,0,1-3.073-3.151c0-1.9,1.123-3.384,2.944-3.384,2.04,0,2.57,1.8,2.57,2.944a2.945,2.945,0,0,1-.038.543Zm3.319-.813a1.623,1.623,0,0,0-1.563-1.848,1.873,1.873,0,0,0-1.744,1.848Z" transform="translate(-437.083 -770.645)"/></g><g transform="translate(44.63 24.358)"><path class="b" d="M229.339,807.87l-7.656,22.537h3.506l2.286-6.92h7.413l2.35,6.92h3.6l-7.689-22.537Zm1.817,3.706c.258,1.006.537,2.051.9,3.179l2.063,5.976h-5.872l2.035-6.014C230.588,813.741,230.882,812.687,231.156,811.576Z" transform="translate(-221.683 -807.51)"/><path class="b" d="M287.489,824.239a6.38,6.38,0,0,0-5.421,2.6l-.136-2.242h-3.119l.019.287c.091,1.4.13,2.934.13,5.14V847.4h3.409v-8.107a5.988,5.988,0,0,0,4.661,2,7.031,7.031,0,0,0,5.167-2.2,9.319,9.319,0,0,0,2.281-6.559,9.069,9.069,0,0,0-1.981-5.988A6.487,6.487,0,0,0,287.489,824.239Zm-.849,2.823c3.04,0,4.4,2.816,4.4,5.606,0,3.6-1.735,5.835-4.529,5.835a4.133,4.133,0,0,1-4.017-3.164,4.361,4.361,0,0,1-.122-1.1v-2.742a5.093,5.093,0,0,1,.109-.841c.017-.094.035-.186.049-.277A4.318,4.318,0,0,1,286.639,827.062Z" transform="translate(-258.422 -818.037)"/><path class="b" d="M336.684,824.239a6.383,6.383,0,0,0-5.422,2.6l-.135-2.242h-3.118l.018.287c.092,1.4.131,2.934.131,5.14V847.4h3.411v-8.107a5.983,5.983,0,0,0,4.659,2,7.038,7.038,0,0,0,5.169-2.2,9.326,9.326,0,0,0,2.28-6.559,9.071,9.071,0,0,0-1.982-5.988A6.485,6.485,0,0,0,336.684,824.239Zm-.848,2.823c3.038,0,4.4,2.816,4.4,5.606,0,3.6-1.737,5.835-4.529,5.835a4.133,4.133,0,0,1-4.017-3.164,4.369,4.369,0,0,1-.12-1.1v-2.742a4.921,4.921,0,0,1,.109-.844c.016-.092.033-.183.049-.274A4.315,4.315,0,0,1,335.836,827.062Z" transform="translate(-290.059 -818.037)"/><path class="b" d="M399.32,816.772c-3.182-1.233-4.2-2.2-4.2-3.992,0-1.508,1.2-3.028,3.876-3.028a7.745,7.745,0,0,1,4,1l.289.178.962-2.846-.19-.111a9.88,9.88,0,0,0-4.965-1.114c-4.349,0-7.385,2.568-7.385,6.242,0,2.963,1.9,5.034,5.986,6.518,2.893,1.082,3.97,2.19,3.97,4.089,0,2.15-1.661,3.484-4.334,3.484a9.334,9.334,0,0,1-4.914-1.393l-.3-.19-.915,2.912.168.111a11.677,11.677,0,0,0,5.762,1.481c5.861,0,7.939-3.573,7.939-6.634C405.072,820.33,403.406,818.384,399.32,816.772Z" transform="translate(-330.698 -806.863)"/><path class="b" d="M436.821,814.365l-3.345,1.05v2.832h-2.448v2.726h2.448v8.348c0,2.018.386,3.432,1.181,4.326a4.373,4.373,0,0,0,3.3,1.3,8.009,8.009,0,0,0,2.636-.407l.191-.067-.163-2.73-.327.1a5.148,5.148,0,0,1-1.586.183c-1.322,0-1.886-.837-1.886-2.8v-8.249h4.113v-2.726h-4.113Z" transform="translate(-356.309 -811.687)"/><path class="b" d="M467.858,824.239c-4.771,0-8.1,3.561-8.1,8.657,0,4.944,3.224,8.4,7.841,8.4h.032c3.9,0,8.1-2.719,8.1-8.69a8.617,8.617,0,0,0-2.173-6.032A7.587,7.587,0,0,0,467.858,824.239Zm-.1,2.692c3.068,0,4.463,2.99,4.463,5.77,0,3.418-1.9,5.9-4.528,5.9h-.033c-2.586,0-4.464-2.44-4.464-5.8C463.2,829.879,464.609,826.931,467.76,826.931Z" transform="translate(-374.783 -818.037)"/><path class="b" d="M518.484,824.4l-.2-.052a3.274,3.274,0,0,0-.848-.106,4.864,4.864,0,0,0-4.275,2.745l-.1-2.387H510l.02.287c.091,1.35.129,2.865.129,4.91l-.032,11.139h3.41v-8.691a8.924,8.924,0,0,1,.093-1.321c.385-2.088,1.794-3.437,3.588-3.437a8.7,8.7,0,0,1,.916.057l.364.038Z" transform="translate(-407.091 -818.037)"/><path class="b" d="M541.365,824.148c-4.54,0-7.711,3.627-7.711,8.82,0,5,3.154,8.233,8.036,8.233a13.083,13.083,0,0,0,5.4-1.036l.2-.092-.655-2.541-.285.115a10.566,10.566,0,0,1-4.272.764c-1.482,0-4.9-.489-5.107-4.944l11.007.033.044-.218a7.547,7.547,0,0,0,.1-1.423C548.129,828.3,546.357,824.148,541.365,824.148Zm-.228,2.594a3.363,3.363,0,0,1,2.5.955,4.849,4.849,0,0,1,1.174,3.174h-7.776C537.354,828.9,538.586,826.742,541.137,826.742Z" transform="translate(-422.305 -817.979)"/></g></svg>