<svg xmlns="http://www.w3.org/2000/svg" xmlns:xlink="http://www.w3.org/1999/xlink" width="182.557" height="59.717" viewBox="0 0 182.557 59.717"><defs><style>.a{fill:none;}.b{fill:#1a252b;}.c{clip-path:url(#a);}.d{fill:url(#b);}.e{fill:url(#c);}.f{fill:url(#d);}.g{fill:url(#e);}.h{fill:#f9f9f9;}.i{fill:#f7f8f8;}</style><clipPath id="a"><path class="a" d="M160.875,344.208l-8.232-4.753-15.878-9.168c-.882-.509-1.76-.2-1.76.863V368.5c0,.8.628,1.141,1.394.7l16.244-9.38,8.231-4.752,7.913-4.567c.928-.536.839-1.272.056-1.694S160.875,344.208,160.875,344.208Z" transform="translate(-135.006 -330.047)"/></clipPath><linearGradient id="b" x1="0.5" x2="0.5" y2="1" gradientUnits="objectBoundingBox"><stop offset="0" stop-color="#006aa2"/><stop offset="0.345" stop-color="#2f8da6"/><stop offset="0.786" stop-color="#66b6ac"/><stop offset="1" stop-color="#7cc6af"/></linearGradient><linearGradient id="c" y1="0.5" x2="1" y2="0.5" gradientUnits="objectBoundingBox"><stop offset="0" stop-color="#4ab59d"/><stop offset="1" stop-color="#dfe385"/></linearGradient><linearGradient id="d" x1="0.5" x2="0.5" y2="1" gradientUnits="objectBoundingBox"><stop offset="0" stop-color="#e4282d"/><stop offset="0.316" stop-color="#ba2d4e"/><stop offset="0.777" stop-color="#83357b"/><stop offset="1" stop-color="#6e388d"/></linearGradient><linearGradient id="e" x1="0.5" x2="0.5" y2="1" gradientUnits="objectBoundingBox"><stop offset="0" stop-color="#f07165"/><stop offset="0.659" stop-color="#faa460"/><stop offset="1" stop-color="#ffba5e"/></linearGradient></defs><path class="b" d="M279.2,347.72a8.07,8.07,0,0,1-8.068,8.071H104.711a8.071,8.071,0,0,1-8.07-8.071V304.144a8.071,8.071,0,0,1,8.07-8.07H271.13a8.07,8.07,0,0,1,8.068,8.07Z" transform="translate(-96.641 -296.074)"/><g transform="translate(13.693 12.126)"><g class="c"><path class="d" d="M135.006,328.285v40.44l20.392-20.22Z" transform="translate(-135.006 -328.914)"/><path class="e" d="M160.875,342.809l-8.232-4.753-17.638-10.184v.147L155.4,348.24Z" transform="translate(-135.006 -328.649)"/><path class="f" d="M135.006,405.157v.147l17.638-10.184,8.231-4.752-5.477-5.431Z" transform="translate(-135.006 -365.346)"/><path class="g" d="M197.617,369.721l-5.477,5.431,5.477,5.43,9.407-5.431Z" transform="translate(-171.747 -355.56)"/></g></g><g transform="translate(136.603 22.71)"><path class="h" d="M484.84,385.122a5.085,5.085,0,0,1-2.1-.424,3.953,3.953,0,0,1-1.594-1.3h-.128a15.807,15.807,0,0,1,.128,1.953v4.839h-1.78v-17.04h1.448l.246,1.61h.086a4.14,4.14,0,0,1,1.6-1.395,4.857,4.857,0,0,1,2.092-.429,4.347,4.347,0,0,1,3.611,1.6,8.516,8.516,0,0,1-.02,8.988A4.358,4.358,0,0,1,484.84,385.122Zm-.258-10.677a3.156,3.156,0,0,0-2.607,1,5.138,5.138,0,0,0-.827,3.177v.4a5.884,5.884,0,0,0,.827,3.547,3.143,3.143,0,0,0,2.65,1.067,2.757,2.757,0,0,0,2.389-1.234,5.855,5.855,0,0,0,.863-3.4,5.636,5.636,0,0,0-.863-3.375A2.843,2.843,0,0,0,484.582,374.445Z" transform="translate(-479.368 -368.21)"/><path class="h" d="M516.725,376.4h-1.781V359.7h1.781Z" transform="translate(-502.246 -359.703)"/><path class="h" d="M534.01,384.946l-.354-1.674h-.086a4.934,4.934,0,0,1-1.755,1.5,5.329,5.329,0,0,1-2.183.392,3.929,3.929,0,0,1-2.742-.9,3.286,3.286,0,0,1-.993-2.564q0-3.562,5.7-3.734l2-.065v-.729a2.978,2.978,0,0,0-.6-2.044,2.447,2.447,0,0,0-1.9-.66,7.756,7.756,0,0,0-3.326.9L527.217,374a8.371,8.371,0,0,1,1.905-.74,8.245,8.245,0,0,1,2.076-.268,4.48,4.48,0,0,1,3.117.933,3.9,3.9,0,0,1,1.014,2.994v8.026Zm-4.024-1.255a3.619,3.619,0,0,0,2.613-.912,3.377,3.377,0,0,0,.95-2.554v-1.062l-1.782.075a6.481,6.481,0,0,0-3.064.661,1.99,1.99,0,0,0-.939,1.819,1.833,1.833,0,0,0,.585,1.47A2.425,2.425,0,0,0,529.986,383.691Z" transform="translate(-509.29 -368.249)"/><path class="h" d="M555.222,373.533h1.909l2.576,6.707a25.643,25.643,0,0,1,1.052,3.316h.086q.139-.548.584-1.873t2.913-8.15h1.911L561.2,386.925a6.681,6.681,0,0,1-1.755,2.818,3.731,3.731,0,0,1-2.462.831,7.2,7.2,0,0,1-1.61-.182v-1.427a6.225,6.225,0,0,0,1.32.129,2.721,2.721,0,0,0,2.618-2.061l.654-1.674Z" transform="translate(-528.148 -368.597)"/></g><g transform="translate(55.399 21.396)"><path class="h" d="M385.718,375a4.007,4.007,0,0,1-.321,6.814,1.731,1.731,0,0,0-.689,1.207,1.349,1.349,0,0,0,.64,1.057l.886.687c1.082.91,2.065,1.747,2.065,3.445,0,2.312-2.239,4.649-6.469,4.649-3.567,0-5.288-1.7-5.288-3.519a3.539,3.539,0,0,1,1.894-3,10.6,10.6,0,0,1,4.7-1.132,2.574,2.574,0,0,1-.738-1.671,2.22,2.22,0,0,1,.246-.961c-.272.025-.542.05-.788.05a3.889,3.889,0,0,1-4.083-3.861,4.425,4.425,0,0,1,1.574-3.3,6.708,6.708,0,0,1,4.4-1.353h5.066l-1.575.886Zm-1.747,10.923a3.821,3.821,0,0,0-.565-.026,9.841,9.841,0,0,0-2.583.4,2.763,2.763,0,0,0-2.116,2.533c0,1.746,1.7,3,4.331,3,2.36,0,3.616-1.134,3.616-2.658C386.653,387.912,385.841,387.25,383.971,385.921Zm.714-4.674a2.489,2.489,0,0,0,.614-1.8c0-1.771-1.057-4.525-3.1-4.525a2.3,2.3,0,0,0-1.722.812,2.842,2.842,0,0,0-.541,1.82c0,1.648.959,4.378,3.076,4.378A2.519,2.519,0,0,0,384.685,381.247Z" transform="translate(-332.04 -367.655)"/><path class="h" d="M348.065,384.9a5.8,5.8,0,0,1-5.992-5.8,6.085,6.085,0,0,1,6.362-5.967,5.741,5.741,0,0,1,5.868,5.8A6,6,0,0,1,348.065,384.9Zm3.07-1.989a4.443,4.443,0,0,0,.738-2.727c0-2.162-1.031-6.287-4.077-6.287a3.421,3.421,0,0,0-2.21.836,3.716,3.716,0,0,0-1.131,3c0,2.43,1.2,6.431,4.176,6.431A3.137,3.137,0,0,0,351.134,382.91Z" transform="translate(-309.873 -367.026)"/><path class="h" d="M310.769,384.9a5.8,5.8,0,0,1-5.993-5.8,6.086,6.086,0,0,1,6.362-5.967,5.741,5.741,0,0,1,5.869,5.8A6,6,0,0,1,310.769,384.9Zm3.07-1.989a4.449,4.449,0,0,0,.737-2.727c0-2.162-1.032-6.287-4.077-6.287a3.422,3.422,0,0,0-2.21.836,3.716,3.716,0,0,0-1.13,3c0,2.43,1.2,6.431,4.176,6.431A3.139,3.139,0,0,0,313.839,382.91Z" transform="translate(-285.888 -367.026)"/><path class="h" d="M268.868,374.5l-3.531.815a26.17,26.17,0,0,1-4.074.419c-6.816,0-9.407-5.013-9.407-8.939,0-4.79,3.678-9.233,9.976-9.233a14.213,14.213,0,0,1,3.777.518,9.627,9.627,0,0,1,3.259,1.531l-2.05,1.951-.864.2.617-.988a7.057,7.057,0,0,0-5.283-2.32c-3.9,0-6.84,2.964-6.84,7.285a8.732,8.732,0,0,0,8.74,9.011,7.354,7.354,0,0,0,3.136-.617v-3.975l-3.728.2,1.974-1.063h5.235l-.641.617a.577.577,0,0,0-.248.394c-.026.223-.049.939-.049,1.186Z" transform="translate(-251.856 -357.01)"/><path class="h" d="M414.666,372.8c-.815-.074-.986-.222-.986-1.186V357.635c0-.053.009-.108.014-.159.1-.864.346-1.012,1.113-1.457h-3.532l-1.852.889h1.888v15.246c0,.493-.1.568-.666,1.308h4.371l.913-.542C415.507,372.869,415.086,372.845,414.666,372.8Z" transform="translate(-353.183 -356.019)"/><path class="h" d="M436.14,384.043c-.269.147-.539.32-.807.442a5.711,5.711,0,0,1-2.381.466,5.24,5.24,0,0,1-3.262-.957,6.346,6.346,0,0,1-2.5-5.174,5.558,5.558,0,0,1,5.615-5.664,4.766,4.766,0,0,1,2.527.687,4.059,4.059,0,0,1,1.714,2.426l-5.761,2.33-1.888.147c.612,3.114,2.721,4.927,5.051,4.927a6.336,6.336,0,0,0,2.991-.857Zm-2.3-7.308c.465-.171.71-.319.71-.662a2.433,2.433,0,0,0-2.428-2.109c-.982,0-2.82.761-2.82,3.408,0,.417.049.858.075,1.3Z" transform="translate(-364.61 -367.039)"/><g transform="translate(73.165 6.117)"><path class="h" d="M457.578,373.324v1.618h-.2v-1.618h-.535v-.168h1.267v.168Z" transform="translate(-456.846 -373.156)"/><path class="h" d="M462.646,374.942v-1.633h-.009l-.5,1.633h-.153l-.5-1.633h-.006v1.633H461.3v-1.786h.306l.455,1.443h.006l.448-1.443h.31v1.786Z" transform="translate(-459.709 -373.156)"/></g></g><g transform="translate(55.441 12.03)"><path class="i" d="M256.836,335.095h-1.227a8.139,8.139,0,0,0-.349-1.434h-1.771a7.412,7.412,0,0,0-.36,1.434h-1.154q0-.149.9-2.454a19.291,19.291,0,0,0,.9-2.538h1.449a21.193,21.193,0,0,0,.811,2.5A21.915,21.915,0,0,1,256.836,335.095Zm-1.771-2.166a21.7,21.7,0,0,1-.656-2.14h-.061a22.442,22.442,0,0,1-.678,2.14Z" transform="translate(-251.974 -329.988)"/><path class="i" d="M272.034,335.095h-.947a9.333,9.333,0,0,0-1.054-1.66,9.143,9.143,0,0,1-1.257-2.166h-.061a13.505,13.505,0,0,1,.1,1.518q0,.947.054,2.308h-.943q.058-1.188.057-2.611,0-1.4-.057-2.381h1.139a7.214,7.214,0,0,0,.947,1.621,9.55,9.55,0,0,1,1.158,2.044h.057a14.548,14.548,0,0,1-.092-1.534q0-1.039-.054-2.132h.959q-.054.951-.054,2.381T272.034,335.095Z" transform="translate(-262.229 -329.988)"/><path class="i" d="M287.418,332.384a2.828,2.828,0,0,1-.7,1.9,2.437,2.437,0,0,1-1.955.813q-.567,0-1.564-.046.05-1.158.05-2.611,0-1.4-.05-2.381h.671q.165,0,.491-.012c.217-.008.359-.011.425-.011a2.585,2.585,0,0,1,2.007.69A2.386,2.386,0,0,1,287.418,332.384Zm-1.047.165a1.847,1.847,0,0,0-.429-1.24,1.628,1.628,0,0,0-1.311-.5,4.062,4.062,0,0,0-.453.034q.039.767.039,1.6,0,.917.038,1.817a2.542,2.542,0,0,0,.5.05,1.449,1.449,0,0,0,1.221-.512A1.975,1.975,0,0,0,286.371,332.549Z" transform="translate(-272.055 -329.946)"/><path class="i" d="M302.092,335.053h-1.135a7.528,7.528,0,0,0-.682-1.675.894.894,0,0,0-.767-.318q-.223,0-.426,0,0,.986.035,1.99h-1.066q.05-1.158.05-2.611,0-1.4-.05-2.381h.663q.115,0,.481-.012t.677-.011q1.76,0,1.76,1.2a1.351,1.351,0,0,1-1,1.331v.057a1.2,1.2,0,0,1,.679.6A13.34,13.34,0,0,1,302.092,335.053Zm-1.438-3.527q0-.763-.982-.763a3.344,3.344,0,0,0-.637.054q.042.594.042,1.549.21.008.357.008Q300.654,332.373,300.654,331.526Z" transform="translate(-281.605 -329.946)"/><path class="i" d="M315.978,332.3a2.754,2.754,0,0,1-.721,1.952,2.339,2.339,0,0,1-1.783.775,2.253,2.253,0,0,1-1.695-.712,2.5,2.5,0,0,1-.682-1.807,2.752,2.752,0,0,1,.721-1.952,2.338,2.338,0,0,1,1.783-.775,2.256,2.256,0,0,1,1.695.71A2.5,2.5,0,0,1,315.978,332.3Zm-1.058.111a1.979,1.979,0,0,0-.41-1.3,1.263,1.263,0,0,0-1.012-.5,1.169,1.169,0,0,0-.951.5,2,2,0,0,0-.391,1.269,1.974,1.974,0,0,0,.412,1.3,1.263,1.263,0,0,0,1.01.5,1.168,1.168,0,0,0,.951-.5A2.006,2.006,0,0,0,314.92,332.41Z" transform="translate(-289.995 -329.78)"/><path class="i" d="M328.89,335.095h-1.085q.05-1.188.05-2.611,0-1.4-.05-2.381h1.085q-.05.966-.05,2.381Q328.84,333.93,328.89,335.095Z" transform="translate(-300.739 -329.988)"/><path class="i" d="M338.816,332.384a2.827,2.827,0,0,1-.7,1.9,2.437,2.437,0,0,1-1.955.813q-.567,0-1.564-.046.05-1.158.05-2.611,0-1.4-.05-2.381h.671q.165,0,.491-.012t.425-.011a2.585,2.585,0,0,1,2.007.69A2.387,2.387,0,0,1,338.816,332.384Zm-1.046.165a1.849,1.849,0,0,0-.429-1.24,1.628,1.628,0,0,0-1.311-.5,4.056,4.056,0,0,0-.453.034q.039.767.039,1.6,0,.917.038,1.817a2.542,2.542,0,0,0,.5.05,1.449,1.449,0,0,0,1.221-.512A1.975,1.975,0,0,0,337.77,332.549Z" transform="translate(-305.108 -329.946)"/><path class="i" d="M358.312,335.095h-1.227a8.086,8.086,0,0,0-.349-1.434h-1.771a7.4,7.4,0,0,0-.36,1.434H353.45q0-.149.9-2.454a19.255,19.255,0,0,0,.9-2.538h1.449a21.158,21.158,0,0,0,.811,2.5A21.993,21.993,0,0,1,358.312,335.095Zm-1.771-2.166a21.79,21.79,0,0,1-.656-2.14h-.061q0,.15-.679,2.14Z" transform="translate(-317.231 -329.988)"/><path class="i" d="M373.039,331.369a1.5,1.5,0,0,1-.681,1.353,3.026,3.026,0,0,1-1.669.437q-.18,0-.257-.007,0,.721.042,1.9H369.4q.05-1.108.05-2.611,0-1.38-.05-2.381h.667q.141,0,.544-.012t.7-.011a2.194,2.194,0,0,1,1.231.33A1.115,1.115,0,0,1,373.039,331.369Zm-.989.211q0-.82-1.089-.82a3.062,3.062,0,0,0-.575.057q.042.724.042,1.641c.064.005.138.008.222.008Q372.049,332.465,372.049,331.579Z" transform="translate(-327.486 -329.946)"/><path class="i" d="M385.922,331.369a1.5,1.5,0,0,1-.68,1.353,3.029,3.029,0,0,1-1.67.437c-.12,0-.206,0-.257-.007q0,.721.042,1.9H382.28q.05-1.108.05-2.611,0-1.38-.05-2.381h.667q.142,0,.545-.012t.7-.011a2.195,2.195,0,0,1,1.231.33A1.115,1.115,0,0,1,385.922,331.369Zm-.989.211q0-.82-1.089-.82a3.062,3.062,0,0,0-.575.057q.042.724.042,1.641c.064.005.138.008.222.008Q384.933,332.465,384.933,331.579Z" transform="translate(-335.771 -329.946)"/><path class="i" d="M404.756,332.3a2.753,2.753,0,0,1-.721,1.952,2.338,2.338,0,0,1-1.783.775,2.253,2.253,0,0,1-1.695-.712,2.505,2.505,0,0,1-.682-1.807,2.753,2.753,0,0,1,.721-1.952,2.34,2.34,0,0,1,1.783-.775,2.256,2.256,0,0,1,1.695.71A2.5,2.5,0,0,1,404.756,332.3Zm-1.058.111a1.977,1.977,0,0,0-.41-1.3,1.262,1.262,0,0,0-1.012-.5,1.17,1.17,0,0,0-.951.5,2,2,0,0,0-.391,1.269,1.975,1.975,0,0,0,.412,1.3,1.262,1.262,0,0,0,1.01.5,1.167,1.167,0,0,0,.951-.5A2,2,0,0,0,403.7,332.41Z" transform="translate(-347.086 -329.78)"/><path class="i" d="M420.7,335.095h-.947a9.337,9.337,0,0,0-1.054-1.66,9.151,9.151,0,0,1-1.258-2.166h-.061a13.6,13.6,0,0,1,.1,1.518q0,.947.054,2.308h-.943q.057-1.188.057-2.611,0-1.4-.057-2.381h1.139a7.223,7.223,0,0,0,.947,1.621,9.548,9.548,0,0,1,1.158,2.044h.057a14.457,14.457,0,0,1-.092-1.534q0-1.039-.054-2.132h.958q-.054.951-.054,2.381T420.7,335.095Z" transform="translate(-357.831 -329.988)"/></g></svg>