<svg xmlns="http://www.w3.org/2000/svg" width="80" height="80" viewBox="0 0 80 80"><defs><style>.a{fill:#1cdbaf;}.b,.d{fill:none;}.b{stroke:#1a252b;stroke-width:8px;}.c{stroke:none;}</style></defs><path class="a" d="M166.349,635.817v-5.012q2.484-2.442,4.59-4.548l1.811-1.811,1.727-1.726q.8-.8,1.432-1.453t.969-1.032q.673-.8,1.2-1.432a6.938,6.938,0,0,0,.843-1.242,6.328,6.328,0,0,0,.484-1.222,4.978,4.978,0,0,0,.169-1.327,3.228,3.228,0,0,0-1.1-2.422,4.187,4.187,0,0,0-2.99-1.032,3.942,3.942,0,0,0-2.948,1.074,5.594,5.594,0,0,0-1.432,2.422L166.1,612.99a9.418,9.418,0,0,1,1.1-2.337,8.738,8.738,0,0,1,1.937-2.148,10.129,10.129,0,0,1,2.8-1.559,10.283,10.283,0,0,1,3.643-.61,11.378,11.378,0,0,1,3.959.653,8.806,8.806,0,0,1,2.99,1.79,8.02,8.02,0,0,1,1.895,2.675,8.151,8.151,0,0,1,.674,3.306,9.573,9.573,0,0,1-1.327,4.948,21.781,21.781,0,0,1-3.222,4.191l-3.622,3.622q-1.432,1.432-3.243,3.2l.169.253h11.666v4.843Z" transform="translate(-135.962 -580.249)"/><g class="b"><circle class="c" cx="40" cy="40" r="40"/><circle class="d" cx="40" cy="40" r="36"/></g></svg>