<svg xmlns="http://www.w3.org/2000/svg" width="80" height="80" viewBox="0 0 80 80"><defs><style>.a{fill:#1cdbaf;}.b{fill:none;}.c,.d{stroke:none;}.d{fill:#1a252b;}</style></defs><path class="a" d="M282.428,638.083a12.917,12.917,0,0,1-3.569-.488,10.306,10.306,0,0,1-3.126-1.485,10.586,10.586,0,0,1-2.505-2.505,11.266,11.266,0,0,1-1.663-3.5l5.454-2.172a6.192,6.192,0,0,0,1.951,3.348,5.261,5.261,0,0,0,3.458,1.131,5.443,5.443,0,0,0,1.774-.288,4.427,4.427,0,0,0,1.463-.82,4.165,4.165,0,0,0,1-1.264,3.587,3.587,0,0,0,.377-1.663,3.648,3.648,0,0,0-1.442-3.059,6.363,6.363,0,0,0-3.968-1.109h-2.616v-5.276h2.395a6.769,6.769,0,0,0,1.729-.221,4.437,4.437,0,0,0,1.485-.687,3.351,3.351,0,0,0,1.02-1.2,3.683,3.683,0,0,0,.377-1.707,3.155,3.155,0,0,0-1.064-2.461,4.161,4.161,0,0,0-2.882-.953,4.053,4.053,0,0,0-2.993,1.042,5.635,5.635,0,0,0-1.441,2.328l-5.321-2.173a10.328,10.328,0,0,1,1.2-2.284,9.46,9.46,0,0,1,2.017-2.128,10.368,10.368,0,0,1,2.86-1.552,10.963,10.963,0,0,1,3.769-.6,12.08,12.08,0,0,1,3.968.621,9.562,9.562,0,0,1,3.082,1.707,7.668,7.668,0,0,1,2,2.572,7.368,7.368,0,0,1,.709,3.214,7.861,7.861,0,0,1-1.2,4.3,6.46,6.46,0,0,1-1.219,1.441,6.718,6.718,0,0,1-1.4.953v.355a8.021,8.021,0,0,1,3.525,2.7,7.617,7.617,0,0,1,1.4,4.7,8.76,8.76,0,0,1-.754,3.658,8.608,8.608,0,0,1-2.151,2.9,9.937,9.937,0,0,1-3.348,1.928A13.019,13.019,0,0,1,282.428,638.083Z" transform="translate(-242.579 -580.929)"/><g class="b"><path class="c" d="M40,0A40,40,0,1,1,0,40,40,40,0,0,1,40,0Z"/><path class="d" d="M 40 8 C 22.35514450073242 8 8 22.35514450073242 8 40 C 8 57.64485168457031 22.35514450073242 72 40 72 C 57.64485168457031 72 72 57.64485168457031 72 40 C 72 22.35514450073242 57.64485168457031 8 40 8 M 40 0 C 62.09138107299805 0 80 17.90861892700195 80 40 C 80 62.09138107299805 62.09138107299805 80 40 80 C 17.90861892700195 80 0 62.09138107299805 0 40 C 0 17.90861892700195 17.90861892700195 0 40 0 Z"/></g></svg>