<svg xmlns="http://www.w3.org/2000/svg" width="264.371" height="63.364" viewBox="0 0 264.371 63.364"><defs><style>.a,.b,.c{fill:#1cdbaf;}.a{opacity:0.25;}.b{opacity:0.5;}.d{fill:#364d58;}</style></defs><g transform="translate(174.687)"><circle class="a" cx="23.561" cy="23.561" r="23.561"/><circle class="b" cx="17.57" cy="17.57" r="17.57" transform="translate(5.991 5.991)"/><circle class="c" cx="10.193" cy="10.193" r="10.193" transform="translate(13.368 13.368)"/></g><path class="d" d="M146,610.56a3.127,3.127,0,0,1-1.053,4.738,7.167,7.167,0,0,1-3.89,1.082,11.336,11.336,0,0,1-6.112-1.55q-2.487-1.549-2.486-6.58V592.106h-2.691a3.2,3.2,0,0,1-3.275-3.275,3.009,3.009,0,0,1,.936-2.252,3.228,3.228,0,0,1,2.339-.907h2.691v-3.744a3.5,3.5,0,0,1,3.568-3.568,3.293,3.293,0,0,1,2.457,1.024,3.51,3.51,0,0,1,.994,2.544v3.744h4.153a3.2,3.2,0,0,1,3.275,3.275,3.009,3.009,0,0,1-.936,2.252,3.225,3.225,0,0,1-2.339.907h-4.153v15.851a2.235,2.235,0,0,0,.643,1.784,2.591,2.591,0,0,0,1.755.556,5.005,5.005,0,0,0,1.287-.234,3.5,3.5,0,0,1,1.345-.292A1.947,1.947,0,0,1,146,610.56Z" transform="translate(-126.497 -564.715)"/><path class="d" d="M257.331,627.364a14.875,14.875,0,0,1-5.762,5.761,16.879,16.879,0,0,1-16.114,0,14.924,14.924,0,0,1-5.732-5.761,17.782,17.782,0,0,1,0-16.787,15.143,15.143,0,0,1,5.732-5.791,16.671,16.671,0,0,1,16.114,0,15.092,15.092,0,0,1,5.762,5.791,17.782,17.782,0,0,1,0,16.787Zm-6.112-13.512a8.832,8.832,0,0,0-3.217-3.48,8.764,8.764,0,0,0-8.949,0,8.823,8.823,0,0,0-3.217,3.48,10.718,10.718,0,0,0-1.2,5.118,10.541,10.541,0,0,0,1.2,5.089,8.859,8.859,0,0,0,3.217,3.451,8.764,8.764,0,0,0,8.949,0,8.868,8.868,0,0,0,3.217-3.451,10.553,10.553,0,0,0,1.2-5.089A10.73,10.73,0,0,0,251.218,613.852Z" transform="translate(-202.111 -582.922)"/><path class="d" d="M969.674,608.425a11.109,11.109,0,0,1,3.8,1.667,2.909,2.909,0,0,1,1.433,2.281,1.782,1.782,0,0,1-.439,1.17,1.356,1.356,0,0,1-1.082.526,1.811,1.811,0,0,1-.965-.234,4.76,4.76,0,0,1-.848-.7,5.82,5.82,0,0,0-1.462-1.111,9.759,9.759,0,0,0-2.311-.673,17.007,17.007,0,0,0-3.071-.263,11,11,0,0,0-5.878,1.638,11.61,11.61,0,0,0-4.182,4.445,12.8,12.8,0,0,0-1.521,6.2,13.463,13.463,0,0,0,1.462,6.317,10.952,10.952,0,0,0,10,6.025,12.949,12.949,0,0,0,3.363-.351,12.682,12.682,0,0,0,2.486-.994,12.41,12.41,0,0,0,1.4-1.053,5.61,5.61,0,0,1,.819-.614,1.484,1.484,0,0,1,.76-.2,1.447,1.447,0,0,1,1.112.439,1.608,1.608,0,0,1,.409,1.141,3.039,3.039,0,0,1-1.4,2.135,12.266,12.266,0,0,1-3.86,1.959,17.126,17.126,0,0,1-5.439.819,14.391,14.391,0,0,1-7.6-2.018,13.769,13.769,0,0,1-5.176-5.586,17.2,17.2,0,0,1-1.843-8.013,16.44,16.44,0,0,1,1.871-7.808,14.377,14.377,0,0,1,13.044-7.75A20.343,20.343,0,0,1,969.674,608.425Z" transform="translate(-742.018 -586.736)"/><path class="d" d="M1103.875,599.02a1.549,1.549,0,0,1-.614,1.258,1.87,1.87,0,0,1-1.141.5,1.6,1.6,0,0,1-1.287-.643l-12.927-13.687-4.387,3.743v8.832a1.755,1.755,0,1,1-3.51,0V559.246a1.755,1.755,0,1,1,3.51,0v26.672l16.9-14.564a1.61,1.61,0,0,1,1.228-.585,1.588,1.588,0,0,1,1.17.556,1.721,1.721,0,0,1,.526,1.2,1.9,1.9,0,0,1-.643,1.345l-12.05,10.236,12.693,13.57A1.954,1.954,0,0,1,1103.875,599.02Z" transform="translate(-839.503 -549.109)"/><path class="d" d="M532.842,610.56a3.127,3.127,0,0,1-1.053,4.738,7.167,7.167,0,0,1-3.889,1.082,11.336,11.336,0,0,1-6.113-1.55q-2.486-1.549-2.486-6.58V592.106H516.61a3.2,3.2,0,0,1-3.275-3.275,3.009,3.009,0,0,1,.936-2.252,3.229,3.229,0,0,1,2.34-.907H519.3v-3.744a3.5,3.5,0,0,1,3.568-3.568,3.293,3.293,0,0,1,2.457,1.024,3.51,3.51,0,0,1,.994,2.544v3.744h4.153a3.2,3.2,0,0,1,3.275,3.275,3.008,3.008,0,0,1-.936,2.252,3.224,3.224,0,0,1-2.339.907H526.32v15.851a2.236,2.236,0,0,0,.643,1.784,2.592,2.592,0,0,0,1.755.556,5.008,5.008,0,0,0,1.287-.234,3.5,3.5,0,0,1,1.345-.292A1.948,1.948,0,0,1,532.842,610.56Z" transform="translate(-415.762 -564.715)"/><path class="d" d="M647.018,572.435q2.222,3.54,2.223,9.8v14.974a3.507,3.507,0,0,1-.994,2.544,3.6,3.6,0,0,1-5.03,0,3.5,3.5,0,0,1-.995-2.544V582.232a8.873,8.873,0,0,0-1.257-5.059q-1.259-1.843-4.416-1.843a6.685,6.685,0,0,0-5.118,1.96,6.932,6.932,0,0,0-1.842,4.942v14.974a3.506,3.506,0,0,1-.994,2.544,3.6,3.6,0,0,1-5.03,0,3.5,3.5,0,0,1-.994-2.544V561.059a3.506,3.506,0,0,1,.994-2.544,3.6,3.6,0,0,1,5.03,0,3.509,3.509,0,0,1,.994,2.544v12.926a14.291,14.291,0,0,1,4.007-3.6A10.129,10.129,0,0,1,639,568.9Q644.8,568.9,647.018,572.435Z" transform="translate(-497.444 -549.109)"/><path class="d" d="M785.733,611.626a13.5,13.5,0,0,1,4.942,5.44,18.108,18.108,0,0,1,0,15.675,13.776,13.776,0,0,1-4.913,5.469,12.759,12.759,0,0,1-6.99,1.989,12.4,12.4,0,0,1-6.229-1.608,12.615,12.615,0,0,1-4.533-4.3v15.442a1.755,1.755,0,1,1-3.509,0V611.6a1.8,1.8,0,0,1,.5-1.287,1.765,1.765,0,0,1,2.515,0,1.807,1.807,0,0,1,.5,1.287v3.977a10.9,10.9,0,0,1,4.387-4.328,12.872,12.872,0,0,1,6.317-1.579A13.052,13.052,0,0,1,785.733,611.626Zm-1.843,23.747a10.6,10.6,0,0,0,3.8-4.3,13.677,13.677,0,0,0,1.375-6.2,13.367,13.367,0,0,0-1.375-6.112,10.648,10.648,0,0,0-3.8-4.27,9.953,9.953,0,0,0-5.469-1.55,10.344,10.344,0,0,0-5.557,1.521,10.169,10.169,0,0,0-3.8,4.24,13.73,13.73,0,0,0-1.345,6.171,13.912,13.912,0,0,0,1.345,6.2,10.319,10.319,0,0,0,3.8,4.3,10.192,10.192,0,0,0,5.557,1.55A9.944,9.944,0,0,0,783.891,635.374Z" transform="translate(-603.576 -588.124)"/><path class="d" d="M402.508,627.364a14.873,14.873,0,0,1-5.761,5.761,16.879,16.879,0,0,1-16.114,0,14.925,14.925,0,0,1-5.732-5.761,17.783,17.783,0,0,1,0-16.787,15.145,15.145,0,0,1,5.732-5.791,16.671,16.671,0,0,1,16.114,0,15.09,15.09,0,0,1,5.761,5.791,17.782,17.782,0,0,1,0,16.787ZM396.4,613.852a8.831,8.831,0,0,0-3.217-3.48,8.764,8.764,0,0,0-8.949,0,8.826,8.826,0,0,0-3.217,3.48,10.722,10.722,0,0,0-1.2,5.118,10.545,10.545,0,0,0,1.2,5.089,8.863,8.863,0,0,0,3.217,3.451,8.764,8.764,0,0,0,8.949,0,8.868,8.868,0,0,0,3.217-3.451,10.553,10.553,0,0,0,1.2-5.089A10.73,10.73,0,0,0,396.4,613.852Z" transform="translate(-310.671 -582.922)"/><path class="d" d="M907.947,638.425a1.755,1.755,0,0,1-3.012-1.258V610.262a1.755,1.755,0,1,1,3.509,0v26.906A1.706,1.706,0,0,1,907.947,638.425Z" transform="translate(-708.588 -587.257)"/></svg>